<svg width="300" height="71" viewBox="0 0 300 71" fill="none" xmlns="http://www.w3.org/2000/svg">
<g clip-path="url(#clip0_1_4)">
<path d="M66.807 3C60.8671 3 55.0296 4.57032 49.9431 7.60856C44.959 4.66136 39.1215 3 33.193 3C14.8839 3 0 17.8726 0 36.1816C0 54.4907 14.8839 69.3746 33.193 69.3746C39.1101 69.3746 44.9249 67.8157 50 64.8002C55.0751 67.8157 60.8898 69.3746 66.807 69.3746C85.1161 69.3746 100 54.4907 100 36.1816C100 17.8726 85.1161 3 66.807 3ZM50 61.5002C44.7542 57.9841 40.8284 53.0797 38.5753 47.4697L51.5134 60.4078C51.0241 60.7833 50.5121 61.1475 50 61.5002ZM53.8689 58.4051L36.8457 41.3933C36.5498 39.6864 36.4019 37.9454 36.4019 36.1816C36.4019 35.772 36.4133 35.3623 36.4247 34.9527L56.7251 55.3327C55.8489 56.4251 54.893 57.4492 53.8689 58.4051ZM58.5685 52.8293L36.8457 31.0269C37.1302 29.3769 37.5398 27.7724 38.086 26.2135L60.7533 48.8807C60.1161 50.2462 59.3878 51.5662 58.5685 52.8293ZM61.9709 45.7515L39.3491 23.1183C39.975 21.8097 40.6919 20.5467 41.4998 19.3291L63.1315 40.9609C62.8698 42.5995 62.4829 44.2039 61.9709 45.7515ZM43.3432 16.837C44.2421 15.7446 45.2208 14.7091 46.279 13.7305L62.9608 30.4124C63.3136 32.2899 63.4957 34.213 63.4957 36.1816C63.4957 36.4433 63.4957 36.7051 63.4843 36.9781L43.3432 16.837ZM48.6573 11.7619C49.0783 11.4433 49.5221 11.1361 49.9659 10.8289C55.041 14.1629 58.853 18.8284 61.1174 24.2107L48.6573 11.7619ZM2.78789 36.1816C2.78789 19.3746 16.386 5.77651 33.193 5.77651C38.2226 5.77651 43.0473 6.94857 47.4283 9.30405C38.7574 15.5171 33.7278 25.4738 33.7278 36.1816C33.7278 46.8894 38.8712 56.8461 47.4283 63.0592C43.036 65.4146 38.1088 66.5867 33.193 66.5867C16.386 66.5981 2.78789 53 2.78789 36.1816ZM66.807 66.5981C61.7774 66.5981 56.9527 65.426 52.5717 63.0705C61.2426 56.8575 66.2722 46.9008 66.2722 36.193C66.2722 25.4852 61.2426 15.5171 52.5717 9.31543C56.964 6.95995 61.7774 5.78789 66.807 5.78789C83.614 5.78789 97.2121 19.386 97.2121 36.193C97.2235 53 83.6254 66.5981 66.807 66.5981Z" fill="#19622A"/>
<path d="M136.436 2.98108C138.37 3.51821 140.017 4.50295 141.378 5.9353C142.739 7.36765 143.473 9.2118 143.58 11.4678C143.616 12.8643 143.553 14.2161 143.392 15.5231C143.231 16.8301 142.909 18.0655 142.425 19.2293C141.942 20.3931 141.279 21.4673 140.438 22.4521C139.596 23.4368 138.531 24.3052 137.242 25.0572C135.845 25.8808 134.332 26.5611 132.703 27.0983C131.074 27.6354 129.31 28.2621 127.412 28.9782V39.6671C127.09 39.7388 126.822 39.8193 126.607 39.9088C126.392 39.9984 126.195 40.0431 126.016 40.0431C124.512 40.1506 123.348 40.1953 122.525 40.1774C121.701 40.1595 121.101 39.9715 120.725 39.6134C120.349 39.2553 120.134 38.6734 120.081 37.8677C120.027 37.0621 120 35.9072 120 34.4033C120.036 29.1036 120.072 23.8307 120.107 18.5847C120.143 13.3388 120.197 8.06592 120.269 2.76623C120.269 2.58718 120.331 2.38128 120.457 2.14852C120.582 1.91577 120.725 1.70092 120.886 1.50397C121.047 1.30702 121.217 1.14588 121.397 1.02055C121.576 0.895218 121.719 0.832554 121.826 0.832554C124.297 1.11902 126.759 1.37864 129.212 1.61139C131.665 1.84415 134.073 2.30071 136.436 2.98108ZM132.247 21.8344C133.142 21.5837 133.956 21.1988 134.691 20.6796C135.425 20.1603 136.051 19.5426 136.57 18.8265C137.09 18.1103 137.493 17.3135 137.779 16.4362C138.066 15.5589 138.191 14.6547 138.155 13.7237C138.083 12.0049 137.555 10.6531 136.57 9.66836C135.586 8.68362 134.055 7.9764 131.978 7.54669C131.333 7.40346 130.662 7.27813 129.964 7.1707C129.266 7.06327 128.433 6.92004 127.466 6.741V13.9923C127.466 13.9923 127.502 16.2661 127.574 20.8138C127.609 21.1003 127.851 21.4047 128.299 21.727C128.746 22.0492 129.167 22.2462 129.561 22.3178C129.991 22.3894 130.438 22.3536 130.904 22.2104C131.369 22.0671 131.817 21.9418 132.247 21.8344ZM158.512 36.7666C158.584 36.8741 158.62 36.9815 158.62 37.0889C158.62 37.1963 158.656 37.3038 158.727 37.4112C158.978 38.2706 159.166 38.9241 159.291 39.3717C159.416 39.8193 159.399 40.1506 159.237 40.3654C159.076 40.5803 158.763 40.7056 158.297 40.7414C157.832 40.7772 157.152 40.7951 156.256 40.7951C155.433 40.7951 154.788 40.7683 154.323 40.7146C153.857 40.6608 153.499 40.5355 153.248 40.3386C152.998 40.1416 152.801 39.8283 152.658 39.3986C152.514 38.9689 152.335 38.3601 152.12 37.5723C151.798 36.3548 151.53 35.209 151.315 34.1347C151.172 33.6334 150.984 33.2484 150.751 32.9799C150.518 32.7113 150.097 32.5591 149.489 32.5233C148.772 32.4875 148.226 32.4696 147.85 32.4696C147.474 32.4696 147.161 32.5322 146.91 32.6576C146.66 32.7829 146.454 33.0246 146.293 33.3827C146.131 33.7408 145.943 34.2421 145.729 34.8867C145.406 35.7103 145.102 36.5428 144.815 37.3843C144.529 38.2258 144.278 39.0763 144.063 39.9357C143.92 40.437 143.723 40.7593 143.473 40.9025C143.222 41.0458 142.882 41.0816 142.452 41.01C141.879 40.9384 141.315 40.8667 140.76 40.7951C140.205 40.7235 139.641 40.6519 139.068 40.5803C138.459 40.5445 138.066 40.4012 137.886 40.1506C137.707 39.8999 137.725 39.4702 137.94 38.8614C138.8 36.3906 139.623 33.9019 140.411 31.3953C141.199 28.8887 142.058 26.4 142.989 23.9292C143.92 21.3868 144.789 18.8354 145.594 16.2751C146.4 13.7148 147.233 11.1455 148.092 8.56724C148.164 8.3882 148.199 8.19125 148.199 7.9764C148.199 7.76155 148.325 7.63622 148.575 7.60041C148.862 7.5646 149.023 7.66307 149.059 7.89583C149.095 8.12858 149.148 8.33449 149.22 8.51353C150.939 13.2045 152.541 17.8954 154.027 22.5864C155.513 27.2773 157.008 32.0041 158.512 36.7666ZM149.703 29.4079C150.24 29.4796 150.572 29.399 150.697 29.1662C150.822 28.9335 150.849 28.6022 150.778 28.1725C150.527 26.776 150.267 25.3794 149.999 23.9829C149.73 22.5864 149.453 21.1361 149.166 19.6321L148.79 19.9007C148.468 21.2973 148.155 22.6848 147.85 24.0635C147.546 25.4421 147.25 26.8297 146.964 28.2262C146.857 28.9066 147.143 29.2647 147.823 29.3005C148.146 29.3363 148.468 29.3542 148.79 29.3542C149.113 29.3542 149.417 29.3721 149.703 29.4079ZM176.184 9.74893C176.972 10.2503 177.715 10.8053 178.413 11.414C179.111 12.0228 179.711 12.739 180.212 13.5626C180.714 14.4578 181.054 15.4157 181.233 16.4362C181.412 17.4568 181.466 18.4684 181.394 19.471C181.179 21.7628 180.409 23.8755 179.084 25.8092C178.905 26.0598 178.717 26.3015 178.52 26.5343C178.323 26.767 178.118 26.9908 177.903 27.2057C177.724 27.4205 177.58 27.6354 177.473 27.8503C177.366 28.0651 177.276 28.28 177.204 28.4948C177.097 28.8887 177.079 29.3184 177.151 29.7839C177.222 30.1062 177.312 30.4195 177.419 30.7239C177.527 31.0283 177.634 31.3237 177.742 31.6102C178.243 32.9709 178.691 34.3316 179.084 35.6924L180.266 39.7746C180.338 40.0252 180.266 40.2401 180.051 40.4191L179.729 40.5266C179.228 40.5982 178.735 40.6519 178.252 40.6877C177.768 40.7235 177.276 40.7593 176.775 40.7951C176.488 40.7951 176.184 40.7683 175.862 40.7146C175.539 40.6608 175.235 40.5445 174.949 40.3654C174.698 40.1864 174.501 39.9894 174.358 39.7746C174.214 39.5597 174.071 39.3091 173.928 39.0226C173.785 38.7003 173.668 38.3601 173.579 38.002C173.489 37.6439 173.409 37.2859 173.337 36.9278L172.263 33.0604C172.263 33.0604 171.887 31.7713 171.135 29.1931L169.523 29.3005L167.912 29.4079C167.876 29.7302 167.849 30.0614 167.832 30.4016C167.814 30.7418 167.787 31.0909 167.751 31.449C167.572 32.9172 167.464 34.3674 167.429 35.7998C167.393 36.1579 167.375 36.507 167.375 36.8472V37.8946C167.375 38.1811 167.366 38.4675 167.348 38.754C167.33 39.0405 167.268 39.327 167.16 39.6134C166.838 40.437 166.229 40.9384 165.334 41.1174C165.119 41.1532 164.904 41.1801 164.689 41.198C164.474 41.2159 164.26 41.2248 164.045 41.2248C163.758 41.2606 163.49 41.2696 163.239 41.2517C162.988 41.2338 162.738 41.1532 162.487 41.01C162.093 40.7951 161.851 40.4907 161.762 40.0968C161.672 39.7029 161.646 39.3091 161.681 38.9152C161.717 38.2706 161.735 37.626 161.735 36.9815V35.1015V26.0777V8.24497C161.735 7.9585 161.878 7.77945 162.165 7.70783C163.49 7.24232 164.85 7.00956 166.247 7.00956C167.644 7.00956 169.022 7.1528 170.383 7.43927C172.424 7.86897 174.358 8.63886 176.184 9.74893ZM169.792 24.5738C170.079 24.5379 170.338 24.4842 170.571 24.4126C170.804 24.341 171.045 24.2694 171.296 24.1978C172.227 23.8039 173.033 23.222 173.713 22.4521C174.393 21.6822 174.859 20.8317 175.11 19.9007C175.181 19.6142 175.226 19.3725 175.244 19.1756C175.262 18.9786 175.253 18.7369 175.217 18.4505V18.0208V17.9133L175.163 17.8059C175.163 17.6627 175.128 17.4478 175.056 17.1613C174.984 16.9465 174.913 16.7585 174.841 16.5974C174.769 16.4362 174.662 16.2482 174.519 16.0334C174.411 15.8185 174.304 15.6395 174.197 15.4962C174.089 15.353 173.946 15.1919 173.767 15.0128C173.051 14.3683 172.281 13.8848 171.457 13.5626C170.634 13.2403 169.774 13.0612 168.879 13.0254C168.807 14.6368 168.727 16.2482 168.637 17.8596C168.548 19.471 168.449 21.0824 168.342 22.6938C168.342 22.837 168.333 22.9803 168.315 23.1235C168.297 23.2667 168.306 23.4279 168.342 23.6069V23.7681V23.8755C168.342 23.9471 168.351 23.9919 168.369 24.0098C168.387 24.0277 168.396 24.0724 168.396 24.1441V24.1978C168.396 24.2336 168.404 24.2604 168.422 24.2783C168.44 24.2962 168.449 24.2873 168.449 24.2515L168.503 24.3052V24.3589L168.557 24.4126L168.61 24.4663H168.664L168.718 24.52H168.772C168.807 24.5558 168.843 24.5738 168.879 24.5738C168.915 24.5738 168.968 24.5917 169.04 24.6275H169.201H169.523C169.595 24.6275 169.649 24.6096 169.685 24.5738H169.792ZM204.115 36.7666C204.186 36.8741 204.222 36.9815 204.222 37.0889C204.222 37.1963 204.258 37.3038 204.33 37.4112C204.58 38.2706 204.768 38.9241 204.894 39.3717C205.019 39.8193 205.001 40.1506 204.84 40.3654C204.679 40.5803 204.365 40.7056 203.9 40.7414C203.434 40.7772 202.754 40.7951 201.859 40.7951C201.035 40.7951 200.391 40.7683 199.925 40.7146C199.46 40.6608 199.102 40.5355 198.851 40.3386C198.6 40.1416 198.403 39.8283 198.26 39.3986C198.117 38.9689 197.938 38.3601 197.723 37.5723C197.401 36.3548 197.132 35.209 196.917 34.1347C196.774 33.6334 196.586 33.2484 196.353 32.9799C196.12 32.7113 195.7 32.5591 195.091 32.5233C194.375 32.4875 193.829 32.4696 193.453 32.4696C193.077 32.4696 192.763 32.5322 192.513 32.6576C192.262 32.7829 192.056 33.0246 191.895 33.3827C191.734 33.7408 191.546 34.2421 191.331 34.8867C191.009 35.7103 190.704 36.5428 190.418 37.3843C190.131 38.2258 189.881 39.0763 189.666 39.9357C189.523 40.437 189.326 40.7593 189.075 40.9025C188.824 41.0458 188.484 41.0816 188.055 41.01C187.482 40.9384 186.918 40.8667 186.363 40.7951C185.808 40.7235 185.244 40.6519 184.671 40.5803C184.062 40.5445 183.668 40.4012 183.489 40.1506C183.31 39.8999 183.328 39.4702 183.543 38.8614C184.402 36.3906 185.226 33.9019 186.013 31.3953C186.801 28.8887 187.661 26.4 188.592 23.9292C189.523 21.3868 190.391 18.8354 191.197 16.2751C192.002 13.7148 192.835 11.1455 193.694 8.56724C193.766 8.3882 193.802 8.19125 193.802 7.9764C193.802 7.76155 193.927 7.63622 194.178 7.60041C194.464 7.5646 194.625 7.66307 194.661 7.89583C194.697 8.12858 194.751 8.33449 194.822 8.51353C196.541 13.2045 198.144 17.8954 199.63 22.5864C201.116 27.2773 202.611 32.0041 204.115 36.7666ZM195.306 29.4079C195.843 29.4796 196.174 29.399 196.299 29.1662C196.425 28.9335 196.452 28.6022 196.38 28.1725C196.129 26.776 195.87 25.3794 195.601 23.9829C195.333 22.5864 195.055 21.1361 194.769 19.6321L194.393 19.9007C194.07 21.2973 193.757 22.6848 193.453 24.0635C193.148 25.4421 192.853 26.8297 192.566 28.2262C192.459 28.9066 192.745 29.2647 193.426 29.3005C193.748 29.3363 194.07 29.3542 194.393 29.3542C194.715 29.3542 195.019 29.3721 195.306 29.4079ZM232.26 8.4061C232.475 8.47772 232.61 8.61201 232.663 8.80895C232.717 9.0059 232.672 9.1939 232.529 9.37294C231.92 10.0175 231.303 10.671 230.676 11.3335C230.049 11.9959 229.414 12.6494 228.769 13.294C227.766 14.2966 226.764 15.2814 225.761 16.2482C224.758 17.2151 223.738 18.164 222.699 19.095C222.449 19.2741 222.198 19.4621 221.948 19.659C221.697 19.856 221.482 20.0798 221.303 20.3304V20.3841C221.267 20.3841 221.249 20.402 221.249 20.4378L221.142 20.5453C221.142 20.5811 221.133 20.6079 221.115 20.6258C221.097 20.6437 221.088 20.6706 221.088 20.7064C221.052 20.7422 221.034 20.7959 221.034 20.8675C221.034 20.9392 221.034 20.9571 221.034 20.9213V21.1361V21.1898V21.2435C221.034 21.3152 221.052 21.3689 221.088 21.4047C221.088 21.4763 221.124 21.5837 221.196 21.727C221.231 21.7986 221.276 21.906 221.33 22.0492C221.384 22.1925 221.446 22.3178 221.518 22.4252C221.697 22.7475 221.885 23.0608 222.082 23.3652C222.279 23.6696 222.467 23.9829 222.646 24.3052C223.398 25.5585 224.123 26.8297 224.821 28.1188C225.519 29.4079 226.227 30.6971 226.943 31.9862L229.038 35.8535C229.217 36.1758 229.387 36.4981 229.548 36.8203C229.709 37.1426 229.879 37.4649 230.058 37.7872L230.38 38.3243C230.38 38.3243 230.47 38.5034 230.649 38.8614C230.721 39.0047 230.739 39.1569 230.703 39.318C230.667 39.4791 230.631 39.6134 230.595 39.7209C230.595 40.0789 230.47 40.258 230.219 40.258C229.718 40.3654 229.208 40.4549 228.689 40.5266C228.169 40.5982 227.659 40.634 227.158 40.634C226.835 40.634 226.513 40.6071 226.191 40.5534C225.869 40.4997 225.564 40.3833 225.278 40.2043C224.991 40.0252 224.758 39.8104 224.579 39.5597C224.4 39.3091 224.221 39.0405 224.042 38.754C223.792 38.3243 223.568 37.8946 223.371 37.4649C223.174 37.0352 222.986 36.6055 222.807 36.1758C222.162 34.8509 221.5 33.5438 220.82 32.2547C220.139 30.9656 219.441 29.6944 218.725 28.4411C218.546 28.1546 218.376 27.8503 218.214 27.528C218.053 27.2057 217.883 26.9013 217.704 26.6149L217.65 26.5074C217.615 26.5074 217.597 26.4985 217.597 26.4806C217.597 26.4627 217.579 26.4537 217.543 26.4537C217.507 26.3821 217.436 26.2926 217.328 26.1851C217.113 25.9703 216.952 25.8271 216.845 25.7554C216.809 25.7554 216.791 25.7375 216.791 25.7017L216.737 25.648C216.702 25.648 216.648 25.6122 216.576 25.5406C216.54 25.5048 216.505 25.4779 216.469 25.46C216.433 25.4421 216.397 25.4153 216.361 25.3794C216.29 25.3794 216.218 25.3436 216.146 25.272L216.039 25.3794C215.932 25.4511 215.824 25.5316 215.717 25.6212C215.609 25.7107 215.502 25.8092 215.395 25.9166C214.857 26.3463 214.428 26.7402 214.105 27.0983C214.034 27.1699 213.971 27.2684 213.917 27.3937C213.864 27.519 213.801 27.6175 213.729 27.6891C213.729 27.7249 213.711 27.7607 213.676 27.7965C213.676 27.8323 213.667 27.8592 213.649 27.8771C213.631 27.895 213.622 27.9219 213.622 27.9577V28.0651C213.622 28.1009 213.613 28.1367 213.595 28.1725C213.577 28.2083 213.568 28.2621 213.568 28.3337C213.461 29.8018 213.407 31.27 213.407 32.7381C213.443 33.4901 213.47 34.2332 213.488 34.9672C213.506 35.7013 213.532 36.4444 213.568 37.1963C213.604 37.6977 213.631 38.2169 213.649 38.754C213.667 39.2911 213.532 39.7746 213.246 40.2043C212.995 40.5982 212.673 40.8578 212.279 40.9831C211.885 41.1084 211.473 41.189 211.044 41.2248C210.614 41.2606 210.149 41.2517 209.647 41.198C209.146 41.1443 208.734 40.9563 208.412 40.634C208.09 40.3475 207.893 39.9805 207.821 39.5329C207.749 39.0852 207.714 38.6645 207.714 38.2706C207.714 37.5544 207.705 36.8203 207.687 36.0684C207.669 35.3164 207.66 34.5644 207.66 33.8124L207.499 24.7886C207.427 21.8881 207.364 18.9876 207.311 16.0871C207.257 13.1866 207.23 10.2861 207.23 7.38555C207.23 7.20651 207.284 7.08118 207.391 7.00956C207.499 6.90214 207.624 6.84842 207.767 6.84842H212.816C213.21 6.84842 213.407 7.02747 213.407 7.38555V20.1693C214.589 19.0592 215.771 17.9581 216.952 16.8659C218.134 15.7738 219.298 14.6547 220.444 13.5089C221.41 12.5778 222.359 11.6289 223.29 10.6621C223.684 10.2323 224.087 9.82055 224.499 9.42665C224.911 9.03276 225.403 8.69257 225.976 8.4061C226.979 7.94059 228.017 7.76155 229.091 7.86897C230.166 7.9764 231.222 8.15544 232.26 8.4061ZM255.303 36.7666C255.375 36.8741 255.411 36.9815 255.411 37.0889C255.411 37.1963 255.447 37.3038 255.518 37.4112C255.769 38.2706 255.957 38.9241 256.082 39.3717C256.208 39.8193 256.19 40.1506 256.028 40.3654C255.867 40.5803 255.554 40.7056 255.089 40.7414C254.623 40.7772 253.943 40.7951 253.047 40.7951C252.224 40.7951 251.579 40.7683 251.114 40.7146C250.648 40.6608 250.29 40.5355 250.039 40.3386C249.789 40.1416 249.592 39.8283 249.449 39.3986C249.305 38.9689 249.126 38.3601 248.911 37.5723C248.589 36.3548 248.321 35.209 248.106 34.1347C247.963 33.6334 247.775 33.2484 247.542 32.9799C247.309 32.7113 246.888 32.5591 246.28 32.5233C245.563 32.4875 245.017 32.4696 244.641 32.4696C244.265 32.4696 243.952 32.5322 243.701 32.6576C243.451 32.7829 243.245 33.0246 243.084 33.3827C242.922 33.7408 242.734 34.2421 242.52 34.8867C242.197 35.7103 241.893 36.5428 241.607 37.3843C241.32 38.2258 241.069 39.0763 240.855 39.9357C240.711 40.437 240.514 40.7593 240.264 40.9025C240.013 41.0458 239.673 41.0816 239.243 41.01C238.67 40.9384 238.106 40.8667 237.551 40.7951C236.996 40.7235 236.432 40.6519 235.859 40.5803C235.25 40.5445 234.857 40.4012 234.678 40.1506C234.498 39.8999 234.516 39.4702 234.731 38.8614C235.591 36.3906 236.414 33.9019 237.202 31.3953C237.99 28.8887 238.849 26.4 239.78 23.9292C240.711 21.3868 241.58 18.8354 242.385 16.2751C243.191 13.7148 244.024 11.1455 244.883 8.56724C244.955 8.3882 244.99 8.19125 244.99 7.9764C244.99 7.76155 245.116 7.63622 245.366 7.60041C245.653 7.5646 245.814 7.66307 245.85 7.89583C245.886 8.12858 245.939 8.33449 246.011 8.51353C247.73 13.2045 249.332 17.8954 250.818 22.5864C252.304 27.2773 253.799 32.0041 255.303 36.7666ZM246.494 29.4079C247.032 29.4796 247.363 29.399 247.488 29.1662C247.613 28.9335 247.64 28.6022 247.569 28.1725C247.318 26.776 247.058 25.3794 246.79 23.9829C246.521 22.5864 246.244 21.1361 245.957 19.6321L245.581 19.9007C245.259 21.2973 244.946 22.6848 244.641 24.0635C244.337 25.4421 244.042 26.8297 243.755 28.2262C243.648 28.9066 243.934 29.2647 244.614 29.3005C244.937 29.3363 245.259 29.3542 245.581 29.3542C245.904 29.3542 246.208 29.3721 246.494 29.4079ZM264.811 33.2216C264.739 34.5107 264.954 35.3432 265.455 35.7192C265.956 36.0952 266.798 36.1579 267.98 35.9072C268.696 35.764 269.43 35.7013 270.182 35.7192C270.934 35.7371 271.757 35.7103 272.653 35.6387V40.1506C270.468 40.258 268.329 40.3654 266.234 40.4728C264.139 40.5803 262.035 40.6519 259.923 40.6877C259.779 40.6877 259.618 40.625 259.439 40.4997C259.26 40.3744 259.09 40.2311 258.929 40.07C258.768 39.9089 258.634 39.7298 258.526 39.5329C258.419 39.3359 258.365 39.1658 258.365 39.0226C258.401 34.081 258.446 29.1662 258.499 24.2783C258.553 19.3904 258.634 14.4757 258.741 9.53408C258.741 9.24761 258.911 8.97009 259.251 8.70153C259.591 8.43296 259.905 8.15544 260.191 7.86897C260.263 7.79736 260.343 7.7705 260.433 7.7884C260.522 7.80631 260.603 7.81526 260.675 7.81526C261.856 7.67202 262.778 7.59145 263.441 7.57355C264.103 7.55565 264.587 7.68098 264.891 7.94954C265.196 8.21811 265.375 8.66572 265.428 9.29237C265.482 9.91902 265.491 10.8232 265.455 12.0049C265.348 19.0592 265.133 26.1314 264.811 33.2216ZM299.939 22.2641C300.118 24.4842 299.903 26.6149 299.294 28.656C299.008 29.6586 298.668 30.6344 298.274 31.5833C297.88 32.5322 297.45 33.4722 296.985 34.4033C296.698 34.9046 296.421 35.4059 296.152 35.9072C295.884 36.4085 295.552 36.8741 295.158 37.3038C294.55 38.1274 293.798 38.8435 292.903 39.4523C292.043 40.061 291.103 40.5086 290.083 40.7951C289.062 41.0816 288.033 41.2248 286.994 41.2248C285.92 41.2248 284.863 41.1084 283.825 40.8757C282.787 40.6429 281.802 40.2401 280.871 39.6671C279.976 39.13 279.188 38.4586 278.507 37.6529C277.827 36.8472 277.272 35.9788 276.842 35.0478C275.732 32.6128 275.034 30.0435 274.748 27.34C274.461 24.6364 274.64 21.9955 275.285 19.4173C275.464 18.7369 275.661 18.0834 275.875 17.4568C276.09 16.8301 276.341 16.1945 276.627 15.5499C276.914 14.9412 277.2 14.3414 277.487 13.7506C277.773 13.1597 278.114 12.5778 278.507 12.0049C279.116 11.0739 279.841 10.2771 280.683 9.61465C281.524 8.95219 282.464 8.4061 283.503 7.9764C285.544 7.1528 287.657 6.84842 289.841 7.06328C290.378 7.13489 290.906 7.23337 291.425 7.3587C291.945 7.48403 292.455 7.65412 292.956 7.86897C293.887 8.33449 294.711 8.87162 295.427 9.48037C296.251 10.1965 296.949 11.0112 297.522 11.9243C298.095 12.8374 298.56 13.7953 298.918 14.798C299.312 15.8364 299.599 16.9644 299.778 18.1819C299.885 18.8981 299.939 19.5963 299.939 20.2767V22.2641ZM290.271 33.1141C290.593 32.6844 290.826 32.2726 290.969 31.8787L291.613 29.7839C292.007 28.4232 292.356 27.0356 292.661 25.6212C292.965 24.2067 293.225 22.7833 293.44 21.351C293.511 21.0287 293.556 20.7154 293.574 20.411C293.592 20.1066 293.583 19.7933 293.547 19.471C293.511 19.1487 293.458 18.8354 293.386 18.531C293.314 18.2267 293.243 17.9312 293.171 17.6448C293.064 17.3225 292.956 17.0181 292.849 16.7316C292.741 16.4452 292.616 16.1587 292.473 15.8722C292.401 15.729 292.339 15.5947 292.285 15.4694C292.231 15.344 292.168 15.2277 292.097 15.1202C292.025 15.0128 291.954 14.9143 291.882 14.8248C291.81 14.7353 291.739 14.6547 291.667 14.5831C291.524 14.4041 291.363 14.234 291.184 14.0728C291.005 13.9117 290.826 13.7595 290.647 13.6163C290.432 13.473 290.226 13.3567 290.029 13.2671C289.832 13.1776 289.626 13.0971 289.411 13.0254C288.409 12.7032 287.424 12.6673 286.457 12.918C286.027 13.0254 285.633 13.2045 285.275 13.4551L285.222 13.5089L285.168 13.5626C285.096 13.5626 285.06 13.5984 285.06 13.67C284.989 13.7058 284.899 13.7774 284.792 13.8848C284.756 13.9207 284.729 13.9565 284.711 13.9923C284.693 14.0281 284.649 14.0639 284.577 14.0997V14.1534V14.2071C284.505 14.2071 284.47 14.2429 284.47 14.3145C284.362 14.4578 284.237 14.6726 284.094 14.9591C284.022 15.0665 283.977 15.1471 283.959 15.2008C283.941 15.2545 283.915 15.353 283.879 15.4962C283.771 15.7827 283.691 16.0423 283.637 16.2751C283.583 16.5078 283.521 16.7674 283.449 17.0539C283.163 18.4505 282.894 19.847 282.643 21.2435C282.393 22.6401 282.124 24.0366 281.838 25.4332C281.945 26.1135 282.035 26.7849 282.106 27.4474C282.178 28.1099 282.285 28.7634 282.428 29.4079L282.643 30.2673L282.858 31.1268C283.037 31.6639 283.216 32.1115 283.395 32.4696C283.467 32.577 283.53 32.6844 283.583 32.7919C283.637 32.8993 283.7 33.0067 283.771 33.1141C283.843 33.2216 283.906 33.3111 283.959 33.3827C284.013 33.4543 284.076 33.5259 284.147 33.5976C284.47 33.9915 284.828 34.2779 285.222 34.457C285.615 34.6718 286.063 34.8151 286.564 34.8867C287.102 34.9225 287.603 34.8688 288.068 34.7255C288.534 34.6181 288.955 34.4212 289.331 34.1347C289.707 33.8482 290.02 33.508 290.271 33.1141ZM287.746 0.241709C288.033 0.0268564 288.364 -0.0447609 288.74 0.0268566C289.116 0.0984741 289.411 0.277517 289.626 0.563987C289.841 0.850457 289.913 1.18169 289.841 1.55768C289.769 1.93367 289.59 2.22909 289.304 2.44395L285.866 4.80732C285.687 4.95056 285.436 5.02218 285.114 5.02218C284.649 5.02218 284.273 4.82523 283.986 4.43133C283.807 4.14486 283.744 3.81363 283.798 3.43764C283.852 3.06165 284.04 2.76623 284.362 2.55137L287.746 0.241709Z" fill="#6A2C70"/>
<path d="M127.461 51.2603C129.428 51.2603 130.902 51.8097 131.886 52.8797C132.753 53.834 133.187 55.2511 133.187 56.9862V64.6497C133.187 68.1489 131.163 70.3467 127.461 70.3467H120.231C120.087 70.3467 120 70.231 120 70.0864V51.5205C120 51.3759 120.087 51.2603 120.231 51.2603H127.461ZM129.399 63.7821V57.8538C129.399 56.0319 128.444 54.8751 126.42 54.8751H123.817V66.7318H126.42C128.155 66.7318 129.399 65.604 129.399 63.7821ZM121.764 53.0243V68.5827C121.764 68.6983 121.88 68.7272 121.938 68.7272H126.651C129.977 68.7272 131.481 66.7318 131.481 64.881V57.4778C131.481 54.4124 129.861 52.8508 126.565 52.8508H121.938C121.88 52.8508 121.764 52.8797 121.764 53.0243ZM131.134 57.4778V64.881C131.134 67.1945 128.82 68.4091 126.651 68.4091H122.111V53.2267H126.565C129.601 53.2267 131.134 54.5859 131.134 57.4778ZM138.479 70.3467C138.335 70.3467 138.248 70.231 138.248 70.0864V51.5205C138.248 51.3759 138.335 51.2603 138.479 51.2603H148.312C148.456 51.2603 148.572 51.3759 148.572 51.5205V54.6149C148.572 54.7594 148.456 54.8751 148.312 54.8751H142.065V58.8081H146.923C147.068 58.8081 147.155 58.9238 147.155 59.0684V62.2205C147.155 62.3651 147.068 62.4808 146.923 62.4808H142.065V66.7318H148.312C148.456 66.7318 148.572 66.8475 148.572 66.9921V70.0864C148.572 70.231 148.456 70.3467 148.312 70.3467H138.479ZM139.925 53.0822V68.467C139.925 68.6405 140.041 68.6983 140.156 68.6983H146.808C147.068 68.6983 147.01 68.3513 146.808 68.3513H140.301V60.8035H145.622C145.796 60.8035 145.796 60.3986 145.622 60.3986H140.301V53.2267H146.808C147.01 53.2267 147.068 52.8508 146.808 52.8508H140.156C140.041 52.8508 139.925 52.9376 139.925 53.0822ZM159.966 58.6346C162.164 59.6756 165.027 61.324 165.027 64.3027C165.027 65.1702 164.882 66.8475 163.928 68.2645C162.858 69.8551 161.18 70.6359 158.867 70.6359C156.409 70.6359 153.546 69.4502 152.649 66.7608C152.62 66.674 152.649 66.5873 152.736 66.5294L155.397 64.2448C155.512 64.1581 155.686 64.1581 155.773 64.3027C155.83 64.4473 155.946 64.6786 156.091 64.9678C156.524 65.8643 157.566 66.7608 158.722 66.7608C159.619 66.7608 160.833 66.2691 160.833 64.881C160.833 63.5508 159.012 62.7989 157.884 62.3651C156.582 61.8446 155.252 61.1794 154.124 60.1962C152.939 59.0973 152.36 57.8827 152.36 56.4367C152.36 52.8219 155.686 51 158.838 51C161.325 51 163.176 52.3013 164.39 54.8751C164.448 54.9908 164.39 55.1354 164.304 55.1932L161.73 56.9862C161.614 57.044 161.556 57.044 161.441 56.8994C160.457 55.4824 159.59 54.8173 158.433 54.8173C157.826 54.8173 156.409 55.0486 156.409 56.1186C156.409 57.42 158.809 58.0851 159.966 58.6346ZM154.703 66.6162C155.426 68.0621 157.421 68.9008 159.04 68.9008C161.151 68.9008 162.858 67.4548 163.089 65.257C163.378 62.5675 161.267 61.4108 159.185 60.3697L158.26 59.9648C156.12 59.0105 154.558 58.2875 154.558 56.2921C154.558 54.0943 156.582 53.0822 158.578 53.0822C160.4 53.0822 161.354 54.1522 161.846 54.8173C162.019 55.0486 162.308 54.8462 162.135 54.6149C161.643 54.0076 160.602 52.7351 158.578 52.7351C156.293 52.7351 154.211 53.863 154.211 56.2921C154.211 58.4611 155.946 59.2997 158.144 60.3119L159.04 60.7456C161.903 62.1048 162.944 63.3773 162.713 65.2281C162.279 68.1778 160.024 68.5537 159.04 68.5537C156.872 68.5537 155.426 67.2524 154.992 66.4427C154.847 66.2981 154.645 66.4427 154.703 66.6162ZM169.596 70.3467C169.451 70.3467 169.364 70.231 169.364 70.0864V51.5205C169.364 51.3759 169.451 51.2603 169.596 51.2603H172.893C173.037 51.2603 173.153 51.3759 173.153 51.5205V70.0864C173.153 70.231 173.037 70.3467 172.893 70.3467H169.596ZM171.1 52.9954V68.5827C171.1 68.8429 171.418 68.8429 171.418 68.5827V52.9954C171.418 52.793 171.1 52.793 171.1 52.9954ZM184.46 63.4062C184.315 63.4062 184.2 63.2905 184.2 63.1459V60.0516C184.2 59.907 184.315 59.7913 184.46 59.7913H191.082C191.227 59.7913 191.343 59.907 191.343 60.0516V64.5919C191.343 68.8429 189.058 70.6359 184.749 70.6359C180.73 70.6359 178.098 69.0454 178.098 64.5919V56.9862C178.098 52.793 180.44 51 184.749 51C188.798 51 191.343 52.5616 191.343 56.9862V57.5935C191.343 57.7381 191.227 57.8538 191.082 57.8538H187.757C187.612 57.8538 187.497 57.7381 187.497 57.5935V57.2175C187.497 55.4535 186.369 54.8751 184.894 54.8751H184.547C183.593 54.8751 182.956 55.1354 182.523 55.7138C182.118 56.2632 181.973 56.9862 181.973 57.9405V63.6664C181.973 66.1824 183.332 66.7318 184.547 66.7318H184.894C186.658 66.7318 187.497 65.5173 187.497 63.6664V63.4062H184.46ZM179.862 64.3894C179.862 67.5994 181.424 68.7851 184.72 68.7851C188.191 68.7851 189.608 67.3391 189.608 63.7821V61.6132C189.608 61.5265 189.55 61.4108 189.492 61.4108H185.472C185.212 61.4108 185.27 61.7867 185.472 61.7867H189.261V63.7821C189.261 66.8764 188.075 68.467 184.72 68.467C181.944 68.467 180.209 67.4837 180.209 64.3894V57.42C180.209 54.4413 181.568 53.1111 184.72 53.1111C187.063 53.1111 189.203 54.4124 189.029 56.4078C189.029 56.6392 189.347 56.697 189.405 56.4367C189.405 53.8919 187.092 52.793 184.72 52.793C181.828 52.793 179.862 53.834 179.862 57.42V64.3894ZM204.154 51.5205C204.154 51.3759 204.269 51.2603 204.414 51.2603H207.74C207.884 51.2603 208 51.3759 208 51.5205V70.0864C208 70.231 207.884 70.3467 207.74 70.3467H204.53C204.414 70.3467 204.298 70.2889 204.269 70.2021L200.047 60.6878V70.0864C200.047 70.231 199.932 70.3467 199.787 70.3467H196.49C196.346 70.3467 196.259 70.231 196.259 70.0864V51.5205C196.259 51.3759 196.346 51.2603 196.49 51.2603H199.903C200.018 51.2603 200.076 51.347 200.105 51.4049L204.154 60.7456V51.5205ZM206.236 68.6116V52.9954C206.236 52.793 205.86 52.7351 205.86 52.9954V67.8597L198.312 52.9376C198.225 52.8219 197.994 52.8219 197.994 52.9954V68.5827C197.994 68.8429 198.341 68.8429 198.341 68.5827V53.7473L205.86 68.6405C205.976 68.8429 206.236 68.7851 206.236 68.6116Z" fill="#6A2C70"/>
</g>
<defs>
<clipPath id="clip0_1_4">
<rect width="300" height="70.6359" fill="white"/>
</clipPath>
</defs>
</svg>
