<svg width="100" height="67" viewBox="0 0 100 67" fill="none" xmlns="http://www.w3.org/2000/svg">
<path d="M66.807 0C60.8671 0 55.0296 1.57032 49.9431 4.60856C44.959 1.66136 39.1215 0 33.193 0C14.8839 0 0 14.8726 0 33.1816C0 51.4907 14.8839 66.3746 33.193 66.3746C39.1101 66.3746 44.9249 64.8157 50 61.8002C55.0751 64.8157 60.8898 66.3746 66.807 66.3746C85.1161 66.3746 100 51.4907 100 33.1816C100 14.8726 85.1161 0 66.807 0ZM50 58.5002C44.7542 54.9841 40.8284 50.0797 38.5753 44.4697L51.5134 57.4078C51.0241 57.7833 50.5121 58.1475 50 58.5002ZM53.8689 55.4051L36.8457 38.3933C36.5498 36.6864 36.4019 34.9454 36.4019 33.1816C36.4019 32.772 36.4133 32.3623 36.4247 31.9527L56.7251 52.3327C55.8489 53.4251 54.893 54.4492 53.8689 55.4051ZM58.5685 49.8293L36.8457 28.0269C37.1302 26.3769 37.5398 24.7724 38.086 23.2135L60.7533 45.8807C60.1161 47.2462 59.3878 48.5662 58.5685 49.8293ZM61.9709 42.7515L39.3491 20.1183C39.975 18.8097 40.6919 17.5467 41.4998 16.3291L63.1315 37.9609C62.8698 39.5995 62.4829 41.2039 61.9709 42.7515ZM43.3432 13.837C44.2421 12.7446 45.2208 11.7091 46.279 10.7305L62.9608 27.4124C63.3136 29.2899 63.4957 31.213 63.4957 33.1816C63.4957 33.4433 63.4957 33.7051 63.4843 33.9782L43.3432 13.837ZM48.6573 8.76195C49.0783 8.44333 49.5221 8.13609 49.9659 7.82886C55.041 11.1629 58.853 15.8284 61.1174 21.2107L48.6573 8.76195ZM2.78789 33.1816C2.78789 16.3746 16.386 2.77651 33.193 2.77651C38.2226 2.77651 43.0473 3.94857 47.4283 6.30405C38.7574 12.5171 33.7278 22.4738 33.7278 33.1816C33.7278 43.8894 38.8712 53.8461 47.4283 60.0592C43.036 62.4147 38.1088 63.5867 33.193 63.5867C16.386 63.5981 2.78789 50 2.78789 33.1816ZM66.807 63.5981C61.7774 63.5981 56.9527 62.426 52.5717 60.0705C61.2426 53.8575 66.2722 43.9008 66.2722 33.193C66.2722 22.4852 61.2426 12.5171 52.5717 6.31543C56.964 3.95995 61.7774 2.78789 66.807 2.78789C83.614 2.78789 97.2121 16.386 97.2121 33.193C97.2235 50 83.6254 63.5981 66.807 63.5981Z" fill="#19622A"/>
</svg>
